G75*
%MOIN*%
%OFA0B0*%
%FSLAX24Y24*%
%IPPOS*%
%LPD*%
%AMOC8*
5,1,8,0,0,1.08239X$1,22.5*
%
%ADD10C,0.0160*%
%ADD11C,0.0396*%
%ADD12C,0.0120*%
%ADD13C,0.0400*%
D10*
X001160Y002354D02*
X001160Y020070D01*
X012192Y020070D01*
X012192Y001160D01*
X002354Y001160D01*
X002425Y001189D01*
X002671Y001435D01*
X002804Y001756D01*
X002804Y002104D01*
X002671Y002425D01*
X002425Y002671D01*
X002104Y002804D01*
X001756Y002804D01*
X001435Y002671D01*
X001189Y002425D01*
X001160Y002354D01*
X001160Y002424D02*
X001189Y002424D01*
X001160Y002582D02*
X001346Y002582D01*
X001160Y002741D02*
X001604Y002741D01*
X001160Y002899D02*
X012192Y002899D01*
X012192Y002741D02*
X002256Y002741D01*
X002514Y002582D02*
X012192Y002582D01*
X012192Y002424D02*
X002671Y002424D01*
X002737Y002265D02*
X012192Y002265D01*
X012192Y002107D02*
X002803Y002107D01*
X002804Y001948D02*
X012192Y001948D01*
X012192Y001790D02*
X002804Y001790D01*
X002752Y001631D02*
X012192Y001631D01*
X012192Y001473D02*
X002686Y001473D01*
X002550Y001314D02*
X012192Y001314D01*
X012192Y003058D02*
X001160Y003058D01*
X001160Y003216D02*
X012192Y003216D01*
X012192Y003375D02*
X001160Y003375D01*
X001160Y003533D02*
X012192Y003533D01*
X012192Y003692D02*
X001160Y003692D01*
X001160Y003850D02*
X012192Y003850D01*
X012192Y004009D02*
X001160Y004009D01*
X001160Y004167D02*
X012192Y004167D01*
X012192Y004326D02*
X001160Y004326D01*
X001160Y004484D02*
X012192Y004484D01*
X012192Y004643D02*
X001160Y004643D01*
X001160Y004801D02*
X012192Y004801D01*
X012192Y004960D02*
X001160Y004960D01*
X001160Y005118D02*
X012192Y005118D01*
X012192Y005277D02*
X001160Y005277D01*
X001160Y005435D02*
X012192Y005435D01*
X012192Y005594D02*
X001160Y005594D01*
X001160Y005752D02*
X012192Y005752D01*
X012192Y005911D02*
X001160Y005911D01*
X001160Y006069D02*
X012192Y006069D01*
X012192Y006228D02*
X001160Y006228D01*
X001160Y006386D02*
X012192Y006386D01*
X012192Y006545D02*
X001160Y006545D01*
X001160Y006703D02*
X012192Y006703D01*
X012192Y006862D02*
X001160Y006862D01*
X001160Y007020D02*
X012192Y007020D01*
X012192Y007179D02*
X001160Y007179D01*
X001160Y007337D02*
X012192Y007337D01*
X012192Y007496D02*
X001160Y007496D01*
X001160Y007654D02*
X012192Y007654D01*
X012192Y007813D02*
X001160Y007813D01*
X001160Y007971D02*
X012192Y007971D01*
X012192Y008130D02*
X001160Y008130D01*
X001160Y008288D02*
X012192Y008288D01*
X012192Y008447D02*
X001160Y008447D01*
X001160Y008605D02*
X012192Y008605D01*
X012192Y008764D02*
X001160Y008764D01*
X001160Y008922D02*
X012192Y008922D01*
X012192Y009081D02*
X001160Y009081D01*
X001160Y009239D02*
X012192Y009239D01*
X012192Y009398D02*
X001160Y009398D01*
X001160Y009556D02*
X012192Y009556D01*
X012192Y009715D02*
X001160Y009715D01*
X001160Y009873D02*
X012192Y009873D01*
X012192Y010032D02*
X001160Y010032D01*
X001160Y010190D02*
X012192Y010190D01*
X012192Y010349D02*
X001160Y010349D01*
X001160Y010507D02*
X012192Y010507D01*
X012192Y010666D02*
X001160Y010666D01*
X001160Y010824D02*
X012192Y010824D01*
X012192Y010983D02*
X001160Y010983D01*
X001160Y011141D02*
X012192Y011141D01*
X012192Y011300D02*
X001160Y011300D01*
X001160Y011458D02*
X012192Y011458D01*
X012192Y011617D02*
X001160Y011617D01*
X001160Y011775D02*
X012192Y011775D01*
X012192Y011934D02*
X001160Y011934D01*
X001160Y012092D02*
X012192Y012092D01*
X012192Y012251D02*
X001160Y012251D01*
X001160Y012409D02*
X012192Y012409D01*
X012192Y012568D02*
X001160Y012568D01*
X001160Y012726D02*
X012192Y012726D01*
X012192Y012885D02*
X001160Y012885D01*
X001160Y013043D02*
X012192Y013043D01*
X012192Y013202D02*
X008986Y013202D01*
X009001Y013216D02*
X009058Y013355D01*
X009058Y013505D01*
X009001Y013644D01*
X008894Y013751D01*
X008755Y013808D01*
X008605Y013808D01*
X008466Y013751D01*
X008385Y013670D01*
X008279Y013670D01*
X006920Y015029D01*
X006920Y015331D01*
X007279Y015690D01*
X008385Y015690D01*
X008466Y015609D01*
X008605Y015552D01*
X008755Y015552D01*
X008894Y015609D01*
X009001Y015716D01*
X009058Y015855D01*
X009058Y016005D01*
X009001Y016144D01*
X008894Y016251D01*
X008755Y016308D01*
X008605Y016308D01*
X008466Y016251D01*
X008385Y016170D01*
X007132Y016170D01*
X007044Y016133D01*
X006977Y016066D01*
X006477Y015566D01*
X006440Y015478D01*
X006440Y014882D01*
X006477Y014794D01*
X006544Y014727D01*
X008044Y013227D01*
X008132Y013190D01*
X008385Y013190D01*
X008466Y013109D01*
X008605Y013052D01*
X008755Y013052D01*
X008894Y013109D01*
X009001Y013216D01*
X009058Y013360D02*
X012192Y013360D01*
X012192Y013519D02*
X009053Y013519D01*
X008968Y013677D02*
X012192Y013677D01*
X012192Y013836D02*
X008114Y013836D01*
X007955Y013994D02*
X012192Y013994D01*
X012192Y014153D02*
X010382Y014153D01*
X010395Y014158D02*
X010502Y014265D01*
X010560Y014404D01*
X010560Y014556D01*
X010502Y014695D01*
X010395Y014802D01*
X010256Y014860D01*
X010104Y014860D01*
X009965Y014802D01*
X009883Y014720D01*
X008477Y014720D01*
X008395Y014802D01*
X008256Y014860D01*
X008104Y014860D01*
X007965Y014802D01*
X007858Y014695D01*
X007800Y014556D01*
X007800Y014404D01*
X007858Y014265D01*
X007965Y014158D01*
X008104Y014100D01*
X008256Y014100D01*
X008395Y014158D01*
X008477Y014240D01*
X009883Y014240D01*
X009965Y014158D01*
X010104Y014100D01*
X010256Y014100D01*
X010395Y014158D01*
X010521Y014311D02*
X012192Y014311D01*
X012192Y014470D02*
X010560Y014470D01*
X010530Y014628D02*
X012192Y014628D01*
X012192Y014787D02*
X010411Y014787D01*
X009949Y014787D02*
X008411Y014787D01*
X007949Y014787D02*
X007163Y014787D01*
X007004Y014945D02*
X012192Y014945D01*
X012192Y015104D02*
X006920Y015104D01*
X006920Y015262D02*
X012192Y015262D01*
X012192Y015421D02*
X007010Y015421D01*
X007168Y015579D02*
X008539Y015579D01*
X008821Y015579D02*
X012192Y015579D01*
X012192Y015738D02*
X009010Y015738D01*
X009058Y015896D02*
X012192Y015896D01*
X012192Y016055D02*
X009038Y016055D01*
X008932Y016213D02*
X012192Y016213D01*
X012192Y016372D02*
X001160Y016372D01*
X001160Y016530D02*
X012192Y016530D01*
X012192Y016689D02*
X001160Y016689D01*
X001160Y016847D02*
X012192Y016847D01*
X012192Y017006D02*
X001160Y017006D01*
X001160Y017164D02*
X012192Y017164D01*
X012192Y017323D02*
X001160Y017323D01*
X001160Y017481D02*
X012192Y017481D01*
X012192Y017640D02*
X001160Y017640D01*
X001160Y017798D02*
X012192Y017798D01*
X012192Y017957D02*
X001160Y017957D01*
X001160Y018115D02*
X012192Y018115D01*
X012192Y018274D02*
X001160Y018274D01*
X001160Y018432D02*
X012192Y018432D01*
X012192Y018591D02*
X001160Y018591D01*
X001160Y018749D02*
X012192Y018749D01*
X012192Y018908D02*
X001160Y018908D01*
X001160Y019066D02*
X012192Y019066D01*
X012192Y019225D02*
X001160Y019225D01*
X001160Y019383D02*
X012192Y019383D01*
X012192Y019542D02*
X001160Y019542D01*
X001160Y019700D02*
X012192Y019700D01*
X012192Y019859D02*
X001160Y019859D01*
X001160Y020017D02*
X012192Y020017D01*
X009978Y014153D02*
X008382Y014153D01*
X008392Y013677D02*
X008272Y013677D01*
X007911Y013360D02*
X001160Y013360D01*
X001160Y013202D02*
X008104Y013202D01*
X007752Y013519D02*
X001160Y013519D01*
X001160Y013677D02*
X007594Y013677D01*
X007435Y013836D02*
X001160Y013836D01*
X001160Y013994D02*
X007277Y013994D01*
X007118Y014153D02*
X001160Y014153D01*
X001160Y014311D02*
X006960Y014311D01*
X006801Y014470D02*
X001160Y014470D01*
X001160Y014628D02*
X006643Y014628D01*
X006484Y014787D02*
X001160Y014787D01*
X001160Y014945D02*
X006440Y014945D01*
X006440Y015104D02*
X001160Y015104D01*
X001160Y015262D02*
X006440Y015262D01*
X006440Y015421D02*
X001160Y015421D01*
X001160Y015579D02*
X006490Y015579D01*
X006648Y015738D02*
X001160Y015738D01*
X001160Y015896D02*
X006807Y015896D01*
X006965Y016055D02*
X001160Y016055D01*
X001160Y016213D02*
X008428Y016213D01*
X007830Y014628D02*
X007321Y014628D01*
X007480Y014470D02*
X007800Y014470D01*
X007839Y014311D02*
X007638Y014311D01*
X007797Y014153D02*
X007978Y014153D01*
D11*
X008680Y013430D03*
X008680Y015930D03*
X006180Y016930D03*
X002680Y015930D03*
X004180Y011180D03*
X009430Y007930D03*
X010680Y002430D03*
D12*
X008680Y013430D02*
X008180Y013430D01*
X006680Y014930D01*
X006680Y015430D01*
X007180Y015930D01*
X008680Y015930D01*
X008180Y014480D02*
X010180Y014480D01*
D13*
X010180Y014480D03*
X008180Y014480D03*
M02*
